<svg id="Layer_1" data-name="Layer 1" xmlns="http://www.w3.org/2000/svg" viewBox="0 0 300 300"><defs><style>.cls-1{fill:#734E20;}.cls-2{fill:#734E20;}</style></defs><path class="cls-1" d="M173.48,56a4.27,4.27,0,0,1,.89-2.55,4.64,4.64,0,0,1,2-1.67A85.51,85.51,0,0,1,190,48a77.42,77.42,0,0,1,14.55-1.34,80.73,80.73,0,0,1,9.55.56,73.19,73.19,0,0,1,9.11,1.66,5.85,5.85,0,0,1,2.44,1.67,4,4,0,0,1,1.11,2.78,4.52,4.52,0,0,1-1.67,3.77,4.38,4.38,0,0,1-4.1.67,53.27,53.27,0,0,0-7.89-1.67,63.88,63.88,0,0,0-8.55-.55,61,61,0,0,0-24.21,4.88c-2.08.75-3.74.71-5-.11S173.48,58.08,173.48,56Z"/><path class="cls-2" d="M157.29,139.84a115.07,115.07,0,0,1,22.36-8.56,92.09,92.09,0,0,1,23.27-2.85,122.56,122.56,0,0,1,17.91,1.37,89.17,89.17,0,0,1,15.86,3.65h0V35.58h0a67.77,67.77,0,0,0-16.43-5.71,84.43,84.43,0,0,0-17.34-1.82,76.27,76.27,0,0,0-23.84,3.76,89.15,89.15,0,0,0-21.79,10.61Zm-6.84,18a14.64,14.64,0,0,1-3.31-.34,6.45,6.45,0,0,1-2.62-1.26A96.17,96.17,0,0,0,121.7,146a84.56,84.56,0,0,0-24.64-3.65,65.61,65.61,0,0,0-16.42,2.05,159.8,159.8,0,0,0-16,5,9.8,9.8,0,0,1-10.15-.68,10.27,10.27,0,0,1-4.91-9.13V34a12.55,12.55,0,0,1,1.6-6.27A10.79,10.79,0,0,1,56,23.26a88.06,88.06,0,0,1,20-6.73,102.65,102.65,0,0,1,21.1-2.17,101,101,0,0,1,28,3.88A89.13,89.13,0,0,1,150.45,30.1a86.54,86.54,0,0,1,25-11.86,97.86,97.86,0,0,1,27.49-3.88,101,101,0,0,1,21,2.17,88.37,88.37,0,0,1,19.85,6.73,11.52,11.52,0,0,1,4.9,4.45A11.88,11.88,0,0,1,250.38,34V139.61a10.83,10.83,0,0,1-5.14,9.7,8.74,8.74,0,0,1-10.15.11,108.25,108.25,0,0,0-15.74-5.13,69,69,0,0,0-16.43-1.94A81.57,81.57,0,0,0,178.74,146a93,93,0,0,0-22.36,10.26,6.45,6.45,0,0,1-2.62,1.26A14.64,14.64,0,0,1,150.45,157.86Z"/><path class="cls-1" d="M64.86,180.18q3.56,0,3.56-3.66A3.3,3.3,0,0,0,64.86,173c-2.41,0-3.61,1.18-3.61,3.56a3.38,3.38,0,0,0,3.61,3.66Z"/><path class="cls-1" d="M56.43,180.18q3.56,0,3.56-3.66A3.3,3.3,0,0,0,56.43,173c-2.41,0-3.62,1.18-3.62,3.56a3.62,3.62,0,0,0,1,2.68A3.58,3.58,0,0,0,56.43,180.18Z"/><path class="cls-1" d="M139.1,216.1a3.52,3.52,0,0,0-2.62,1,3.45,3.45,0,0,0-1,2.57,3.6,3.6,0,0,0,1,2.68,3.52,3.52,0,0,0,2.62,1c2.38,0,3.56-1.22,3.56-3.67a3.3,3.3,0,0,0-3.56-3.56Z"/><path class="cls-1" d="M167.63,182q3.56,0,3.56-3.67a3.31,3.31,0,0,0-3.56-3.56,3.57,3.57,0,0,0-2.6,1,3.44,3.44,0,0,0-1,2.57,3.68,3.68,0,0,0,1,2.66A3.53,3.53,0,0,0,167.63,182Z"/><path class="cls-1" d="M159.25,182c2.38,0,3.56-1.22,3.56-3.67a3.67,3.67,0,0,0-6.18-2.57,3.47,3.47,0,0,0-1,2.57,3.6,3.6,0,0,0,1,2.68A3.52,3.52,0,0,0,159.25,182Z"/><path class="cls-1" d="M245.66,189.88a10.07,10.07,0,0,0-18.4,6.13v4.54a4.3,4.3,0,0,1-.88,3,4,4,0,0,1-3,.9H211.11a4.13,4.13,0,0,1-3-.9,4.2,4.2,0,0,1-.9-3v-.22a12.23,12.23,0,0,0-5.48-10.78,15.09,15.09,0,0,0-7.33-2.58l10-11.17h-7L186.3,188.18v6.62a17.44,17.44,0,0,1,5.86-1.09,9,9,0,0,1,5.91,1.83,6,6,0,0,1,2.25,4.85v.33q0,3.76-3.83,3.77h-23a4,4,0,0,1-2.95-.9,4.25,4.25,0,0,1-.88-3V186.81l-6.9,3.61v10.13a4.3,4.3,0,0,1-.87,3,4,4,0,0,1-3,.9H146.06a4,4,0,0,1-3-.9,4.3,4.3,0,0,1-.87-3V186.81l-6.9,3.61v10.13a4.3,4.3,0,0,1-.88,3,4,4,0,0,1-3,.9H74.11a4.12,4.12,0,0,1-3-.9,4.2,4.2,0,0,1-.9-3V182.32l-6.85,3.61v1.43a8.94,8.94,0,0,0-3.72-.77,9.6,9.6,0,0,0-6.85,2.85,12.76,12.76,0,0,0-1,16.31,9.77,9.77,0,0,0,8,3.78,9.18,9.18,0,0,0,5.75-1.8,9.64,9.64,0,0,0,7.89,3.39h58.69a10.15,10.15,0,0,0,6.63-2.14,10.12,10.12,0,0,0,6.62,2.14h14.24a10.12,10.12,0,0,0,6.62-2.14,10.13,10.13,0,0,0,6.63,2.14H197.2a10.12,10.12,0,0,0,6.62-2.14,9.93,9.93,0,0,0,6.57,2.14h13.69a10.47,10.47,0,0,0,6.35-1.92,12.42,12.42,0,0,0,7.18,1.92,9.73,9.73,0,0,0,7.39-3.07q3.23-3.5,3.23-9.58A13.69,13.69,0,0,0,245.66,189.88ZM60.21,203.67a3.6,3.6,0,0,1-3-1.42,6.13,6.13,0,0,1-1.09-3.83,6.26,6.26,0,0,1,1.12-3.89,3.51,3.51,0,0,1,2.93-1.48,4.83,4.83,0,0,1,3.23,1.21v6.62a11.16,11.16,0,0,0,.06,1.37A3.93,3.93,0,0,1,60.21,203.67Zm177.18.82c-2.16,0-3.23-1-3.23-3.06V195.9q0-3.61,3.06-3.62,4.22,0,4.22,6Q241.44,204.49,237.39,204.49Z"/><path class="cls-2" d="M53.44,232.2c2.38,0,3.56-1.22,3.56-3.67A3.31,3.31,0,0,0,53.44,225q-3.61,0-3.61,3.56a3.6,3.6,0,0,0,1,2.68A3.52,3.52,0,0,0,53.44,232.2Z"/><path class="cls-2" d="M61.88,232.2q3.56,0,3.55-3.67A3.3,3.3,0,0,0,61.88,225q-3.62,0-3.62,3.56a3.6,3.6,0,0,0,1,2.68A3.53,3.53,0,0,0,61.88,232.2Z"/><path class="cls-2" d="M86.52,268.12c-2.41,0-3.62,1.18-3.62,3.56a3.62,3.62,0,0,0,1,2.68,3.53,3.53,0,0,0,2.63,1c2.37,0,3.55-1.23,3.55-3.67a3.3,3.3,0,0,0-3.55-3.56Z"/><path class="cls-2" d="M78.08,268.12c-2.41,0-3.61,1.18-3.61,3.56a3.65,3.65,0,0,0,1,2.68,3.56,3.56,0,0,0,2.63,1c2.38,0,3.56-1.23,3.56-3.67a3.31,3.31,0,0,0-3.56-3.56Z"/><path class="cls-2" d="M102.67,252.57a4.31,4.31,0,0,1-.88,3,4,4,0,0,1-3,.9H92.26a4,4,0,0,1-3-.9,4.26,4.26,0,0,1-.88-3V238.83l-6.9,3.61v10.13a4.31,4.31,0,0,1-.87,3,4,4,0,0,1-3,.9H71.13a4.1,4.1,0,0,1-3-.9,4.17,4.17,0,0,1-.91-3V234.34L60.4,238v1.42a9,9,0,0,0-3.73-.76,9.59,9.59,0,0,0-6.84,2.84,12.77,12.77,0,0,0-1,16.32,9.77,9.77,0,0,0,8.05,3.78,9.14,9.14,0,0,0,5.75-1.81,9.61,9.61,0,0,0,7.88,3.4h7.89A10.18,10.18,0,0,0,85,261a10.19,10.19,0,0,0,6.63,2.14h7.88a9.52,9.52,0,0,0,10.08-10.24V238.83l-6.9,3.61Zm-45.45,3.12a3.58,3.58,0,0,1-3-1.42,6.15,6.15,0,0,1-1.09-3.84,6.23,6.23,0,0,1,1.12-3.88,3.5,3.5,0,0,1,2.93-1.48,4.88,4.88,0,0,1,3.23,1.2v6.63c0,.62,0,1.07.05,1.37A3.9,3.9,0,0,1,57.22,255.69Z"/><path class="cls-2" d="M106.28,226.07a3.59,3.59,0,0,0-2.63,1,3.52,3.52,0,0,0-1,2.58,3.65,3.65,0,0,0,1,2.68,3.56,3.56,0,0,0,2.63,1c2.37,0,3.56-1.23,3.56-3.67a3.31,3.31,0,0,0-3.56-3.56Z"/><path class="cls-2" d="M128.73,237.89a10.09,10.09,0,0,0-7.67,3.07q-3.28,3.45-3.28,9.47a12.15,12.15,0,0,0,2.46,7.67,9.77,9.77,0,0,0,8,3.78,18.41,18.41,0,0,0,3.51-.33q-.66,5.74-6,5.75a11.83,11.83,0,0,1-5.92-1.7v6a13.53,13.53,0,0,0,6.74,1.86,11.11,11.11,0,0,0,8.65-3.5q3.39-3.74,3.39-10.19V248a10.2,10.2,0,0,0-2.35-7A9.6,9.6,0,0,0,128.73,237.89Zm3.12,17a4.1,4.1,0,0,1-3.18,1.1q-4.15,0-4.16-5.81a7.35,7.35,0,0,1,1.13-4.32,3.56,3.56,0,0,1,3.09-1.59c2.08,0,3.12,1.21,3.12,3.61Z"/><path class="cls-2" d="M172.15,234c2.37,0,3.56-1.23,3.56-3.67a3.31,3.31,0,0,0-3.56-3.56,3.54,3.54,0,0,0-2.63,1,3.45,3.45,0,0,0-1,2.57,3.62,3.62,0,0,0,1,2.68A3.54,3.54,0,0,0,172.15,234Z"/><path class="cls-2" d="M180.53,234c2.37,0,3.55-1.23,3.55-3.67a3.3,3.3,0,0,0-3.55-3.56,3.59,3.59,0,0,0-2.61,1,3.43,3.43,0,0,0-1,2.57,3.62,3.62,0,0,0,1,2.65A3.47,3.47,0,0,0,180.53,234Z"/><path class="cls-2" d="M226.79,251.69a5.23,5.23,0,0,1-1.07,3.73,4.85,4.85,0,0,1-3.58,1.09h-4.49a4.14,4.14,0,0,1-3-.9,4.22,4.22,0,0,1-.9-3v-.22a12.27,12.27,0,0,0-5.47-10.79A15.12,15.12,0,0,0,201,239l10-11.17H204l-11.12,12.37v6.63a17.46,17.46,0,0,1,5.86-1.1,9.09,9.09,0,0,1,5.92,1.84,6,6,0,0,1,2.24,4.84v.33q0,3.78-3.83,3.78H186.44a4,4,0,0,1-3-.9,4.31,4.31,0,0,1-.87-3V238.83l-6.9,3.61v10.13a4.31,4.31,0,0,1-.88,3,4,4,0,0,1-3,.9H165.3a4,4,0,0,1-3-.9,4.26,4.26,0,0,1-.88-3V238.83l-.05,0v0l-2.36,1.25-4.49,2.36v17.74a8,8,0,0,1-1.67,5.39,5.82,5.82,0,0,1-4.68,1.95,11.38,11.38,0,0,1-5.58-1.59v6a14.11,14.11,0,0,0,6.73,1.75A11.28,11.28,0,0,0,157,271a13,13,0,0,0,4.22-8.33,11.55,11.55,0,0,0,3.45.5h7.88a10.21,10.21,0,0,0,6.63-2.14,10.18,10.18,0,0,0,6.62,2.14h18a10.21,10.21,0,0,0,6.63-2.14,10,10,0,0,0,6.57,2.14h5.58a10.77,10.77,0,0,0,7.89-2.91,11.35,11.35,0,0,0,3.23-8.48V227.82l-6.85,3.67Z"/><polygon class="cls-2" points="243.49 231.49 243.49 263.14 250.39 263.14 250.39 227.82 243.49 231.49"/><path class="cls-1" d="M168.24,108.35a4.88,4.88,0,0,1,.92-2.73,4.61,4.61,0,0,1,2.05-1.83,80.91,80.91,0,0,1,14-3.76,86.37,86.37,0,0,1,14.94-1.26,82.88,82.88,0,0,1,9.81.57,75,75,0,0,1,9.36,1.71,6.07,6.07,0,0,1,2.51,1.71,4.14,4.14,0,0,1,1.14,2.86,4.7,4.7,0,0,1-1.71,3.88,4.5,4.5,0,0,1-4.22.68,54.82,54.82,0,0,0-8.1-1.71,65.68,65.68,0,0,0-8.79-.57A70,70,0,0,0,187.41,109a58.12,58.12,0,0,0-12.09,3.65q-3.19,1.14-5.14,0T168.24,108.35Z"/><path class="cls-1" d="M168.24,83.26a4.38,4.38,0,0,1,.92-2.62,4.83,4.83,0,0,1,2.05-1.72,89.1,89.1,0,0,1,14-3.87,79.07,79.07,0,0,1,14.94-1.37,82.88,82.88,0,0,1,9.81.57A75,75,0,0,1,219.35,76a5.88,5.88,0,0,1,2.51,1.71A4.14,4.14,0,0,1,223,80.52a4.69,4.69,0,0,1-1.71,3.88,4.5,4.5,0,0,1-4.22.68,54.82,54.82,0,0,0-8.1-1.71,65.68,65.68,0,0,0-8.79-.57,62.85,62.85,0,0,0-24.86,5q-3.19,1.14-5.14-.11T168.24,83.26Z"/></svg>